<svg version="1.2" xmlns="http://www.w3.org/2000/svg" xmlns:xlink="http://www.w3.org/1999/xlink" viewBox="0 0 320 304" enable-background="new 0 0 320 304" xml:space="preserve" baseProfile="tiny-ps">
<path fill="#000000" opacity="1.000000" stroke="none" 
	d="
M188.676941,84.170059 
	C201.644974,82.187096 212.702515,85.973900 222.968857,93.612946 
	C224.124100,90.278320 223.220078,85.527130 227.659821,86.035896 
	C232.616043,86.603836 231.209503,91.268791 231.301193,94.546089 
	C231.445572,99.706497 231.396713,104.879013 231.212830,110.038681 
	C231.136932,112.168304 230.022949,114.020920 227.587540,114.062286 
	C225.468155,114.098289 224.442413,112.521790 223.818710,110.639275 
	C219.879639,98.750305 210.436935,91.845673 197.288071,91.393097 
	C188.247086,91.081917 180.232178,93.706856 173.583084,100.081482 
	C171.485626,102.092361 171.172058,103.914902 172.535782,106.666695 
	C181.052658,123.852501 180.620651,141.359558 173.474487,158.800095 
	C172.045807,162.286819 172.752548,164.249573 175.240250,166.576599 
	C188.979187,179.428238 208.658600,178.613052 223.799149,164.435822 
	C225.014633,163.297668 226.212784,162.130539 227.316940,160.886292 
	C229.232071,158.728180 231.436111,157.817780 233.840591,159.818344 
	C236.620804,162.131546 234.673691,164.344559 233.190247,166.319427 
	C221.488281,181.897964 200.034317,187.497162 182.025909,179.733551 
	C177.392105,177.735870 173.028122,175.301666 169.693542,171.432495 
	C167.867935,169.314209 166.352173,169.225159 164.324158,171.172684 
	C156.138947,179.033020 146.246643,181.858658 135.032791,181.439682 
	C125.380890,181.079041 115.705070,181.362305 106.039848,181.349915 
	C104.707657,181.348206 103.358284,181.405487 102.047325,181.220093 
	C99.913857,180.918365 98.063545,179.908386 97.962753,177.549530 
	C97.856842,175.070740 99.908447,173.735580 101.890457,173.880524 
	C107.683907,174.304138 107.711777,170.840149 107.692734,166.630798 
	C107.590187,143.967926 107.585579,121.304070 107.699966,98.641335 
	C107.718262,95.017555 107.081848,92.902596 102.816055,93.234512 
	C100.314995,93.429123 98.019234,92.226204 97.991486,89.325272 
	C97.968216,86.892456 100.104446,85.824432 102.147484,85.820038 
	C116.629128,85.788872 131.137039,84.859398 145.584167,86.278503 
	C153.285065,87.034935 159.653107,91.084343 165.745728,96.411514 
	C172.101929,90.124619 179.459366,85.805580 188.676941,84.170059 
M159.136795,101.302307 
	C154.096207,96.182716 147.885330,93.630081 140.800552,93.424545 
	C133.812744,93.221817 126.812889,93.463051 119.822052,93.323288 
	C116.720200,93.261284 115.294220,94.188271 115.307076,97.562851 
	C115.398422,121.540398 115.399254,145.518631 115.304077,169.496140 
	C115.290504,172.916656 116.799355,173.748459 119.857841,173.687531 
	C126.515732,173.554962 133.178116,173.632492 139.838593,173.650452 
	C146.284439,173.667816 151.799271,171.141129 156.904282,167.473465 
	C160.694153,164.750641 162.775238,161.954697 158.967575,157.364502 
	C157.260559,155.306671 156.293503,152.262131 155.915726,149.537094 
	C153.963806,135.457047 152.897141,121.386383 158.863953,107.829636 
	C159.688766,105.955658 161.387848,104.072235 159.136795,101.302307 
M163.586975,148.701736 
	C164.484924,150.681000 164.565857,153.132202 166.651352,154.648987 
	C172.785461,143.548721 172.351028,119.820244 165.592758,111.864235 
	C160.809494,123.928162 161.843948,135.906982 163.586975,148.701736 
z"/>
</svg>
